# xmcd
#
# Track frame offsets:
#	150
#	14759
#	28188
#	48183
#	71770
#	84943
#	99856
#	118939
#	137772
#	157245
#	174141
#	196584
#	212228
#	226761
#	249595
#	265182
#
# Disc length: 3803 seconds
#
# Revision: 1
# Processed by: cddbd v1.5.2PL0 Copyright (c) Steve Scherf et al.
# Submitted via: FairStars CD Ripper 1.90
#
DISCID=d50ed910
DTITLE=Billy Ray Cyrus - Set The Record Straight
DYEAR=2017
DGENRE=Country
TTITLE0=I Want To Be Your Joe	
TTITLE1=Tulsa Time
TTITLE2=You Good
TTITLE3=Folsom Prison Blues
TTITLE4=Country Music Has The Blues
TTITLE5=I Want My Mullet Back
TTITLE6=Achy Breaky Heart 25th
TTITLE7=I Wouldn't Be Me
TTITLE8=Stand
TTITLE9=Hey Daddy
TTITLE10=The Freebird Fell
TTITLE11=Trail Of Tears
TTITLE12=Achy Breaky Heart 25
TTITLE13=Meant To Be
TTITLE14=Achy Breaky Heart
TTITLE15=Worry
EXTD=
EXTT0=
EXTT1=
EXTT2=
EXTT3=
EXTT4=
EXTT5=
EXTT6=
EXTT7=
EXTT8=
EXTT9=
EXTT10=
EXTT11=
EXTT12=
EXTT13=
EXTT14=
EXTT15=
PLAYORDER=
